<?xml version="1.0" encoding="UTF-8"?>
<svg width="590px" height="930px" viewBox="0 0 590 930" version="1.1" xmlns="http://www.w3.org/2000/svg" xmlns:xlink="http://www.w3.org/1999/xlink">
    <!-- Generator: Sketch 41.2 (35397) - http://www.bohemiancoding.com/sketch -->
    <title>Group</title>
    <desc>Created with Sketch.</desc>
    <defs>
        <circle id="path-1" cx="295" cy="295" r="295"></circle>
        <mask id="mask-2" maskContentUnits="userSpaceOnUse" maskUnits="objectBoundingBox" x="0" y="0" width="590" height="590" fill="white">
            <use xlink:href="#path-1"></use>
        </mask>
        <circle id="path-3" cx="295" cy="295" r="225"></circle>
        <mask id="mask-4" maskContentUnits="userSpaceOnUse" maskUnits="objectBoundingBox" x="0" y="0" width="450" height="450" fill="white">
            <use xlink:href="#path-3"></use>
        </mask>
        <circle id="path-5" cx="295" cy="295" r="155"></circle>
        <mask id="mask-6" maskContentUnits="userSpaceOnUse" maskUnits="objectBoundingBox" x="0" y="0" width="310" height="310" fill="white">
            <use xlink:href="#path-5"></use>
        </mask>
        <polygon id="path-7" points="65.5815621 0.234036145 0 0.234036145 0 69.3906627 131.163124 69.3906627 131.163124 0.234036145 65.5815621 0.234036145"></polygon>
        <polygon id="path-9" points="44.2130149 44.6987952 88.1566226 44.6987952 88.1566226 0 0.269407285 1.19850582e-14 0.269407285 44.6987952"></polygon>
        <polygon id="path-11" points="65.5815621 0.234036145 0 0.234036145 0 69.3906627 131.163124 69.3906627 131.163124 0.234036145 65.5815621 0.234036145"></polygon>
        <polygon id="path-13" points="44.2130149 44.6987952 88.1566226 44.6987952 88.1566226 0 0.269407285 1.19850582e-14 0.269407285 44.6987952"></polygon>
        <ellipse id="path-15" cx="243.896934" cy="447.089722" rx="13.6836028" ry="13.6836028"></ellipse>
        <mask id="mask-16" maskContentUnits="userSpaceOnUse" maskUnits="objectBoundingBox" x="0" y="0" width="27.3672055" height="27.3672055" fill="white">
            <use xlink:href="#path-15"></use>
        </mask>
        <ellipse id="path-17" cx="326.398888" cy="211.007207" rx="13.6836028" ry="13.6836028"></ellipse>
        <mask id="mask-18" maskContentUnits="userSpaceOnUse" maskUnits="objectBoundingBox" x="0" y="0" width="27.3672055" height="27.3672055" fill="white">
            <use xlink:href="#path-17"></use>
        </mask>
        <ellipse id="path-19" cx="482.517971" cy="143.736382" rx="13.6836028" ry="13.6836028"></ellipse>
        <mask id="mask-20" maskContentUnits="userSpaceOnUse" maskUnits="objectBoundingBox" x="0" y="0" width="27.3672055" height="27.3672055" fill="white">
            <use xlink:href="#path-19"></use>
        </mask>
        <ellipse id="path-21" cx="73.6836028" cy="328.683603" rx="13.6836028" ry="13.6836028"></ellipse>
        <mask id="mask-22" maskContentUnits="userSpaceOnUse" maskUnits="objectBoundingBox" x="0" y="0" width="27.3672055" height="27.3672055" fill="white">
            <use xlink:href="#path-21"></use>
        </mask>
        <circle id="path-23" cx="481.24871" cy="457.243809" r="13.6836028"></circle>
        <mask id="mask-24" maskContentUnits="userSpaceOnUse" maskUnits="objectBoundingBox" x="0" y="0" width="27.3672055" height="27.3672055" fill="white">
            <use xlink:href="#path-23"></use>
        </mask>
    </defs>
    <g id="90Cities-iOS-UI-Kit---Proxima-Nova" stroke="none" stroke-width="1" fill="none" fill-rule="evenodd">
        <g id="4---Walkthrough" transform="translate(-80.000000, -206.000000)">
            <g id="Group" transform="translate(80.000000, 172.000000)">
                <g id="Illustration">
                    <g id="Base" transform="translate(0.000000, 34.000000)" stroke="#1991EB" stroke-width="8" fill="#1991EB" fill-opacity="0.400000006">
                        <use id="Circle" mask="url(#mask-2)" opacity="0.100000001" xlink:href="#path-1"></use>
                        <use id="Circle" mask="url(#mask-4)" opacity="0.300000012" xlink:href="#path-3"></use>
                        <use id="Circle" mask="url(#mask-6)" xlink:href="#path-5"></use>
                    </g>
                    <g id="Places" transform="translate(17.000000, 0.000000)">
                        <circle id="Place-Icon" cx="72" cy="127" r="45"></circle>
                        <circle id="Place-Icon" cx="323" cy="49" r="49"></circle>
                        <circle id="Place-Icon" cx="523" cy="187" r="47"></circle>
                        <circle id="Place-Icon" cx="492" cy="523" r="47"></circle>
                        <circle id="Place-Icon" cx="55" cy="450" r="55"></circle>
                        <circle id="Place-Icon" cx="286" cy="608" r="59"></circle>
                    </g>
                </g>
                <g id="Caption" transform="translate(0.000000, 834.000000)">
                    <text id="ОБЩЕНИЕ-С-ЕДИНОМЫШЛЕ" font-family="ProximaNova-Semibold, Proxima Nova" font-size="34" font-weight="500" fill="#FFFFFF">
                        <tspan x="214.656" y="84">ОБЩЕНИЕ </tspan>
                        <tspan x="70.853" y="125">С ЕДИНОМЫШЛЕННИКАМИ</tspan>
                    </text>
                    <text id="ЭТО" font-family="HelveticaNeue-Light, Helvetica Neue" font-size="30" font-weight="300" line-spacing="40" fill="#C5D0DE">
                        <tspan x="263.62" y="29">ЭТО</tspan>
                    </text>
                </g>
                <g id="Group-13" transform="translate(7.000000, 697.000000)">
                    <g id="Page-1-Copy-4">
                        <g id="Group-3" transform="translate(0.000000, 0.187651)">
                            <mask id="mask-8" fill="white">
                                <use xlink:href="#path-7"></use>
                            </mask>
                            <g id="Clip-2"></g>
                            <path d="M36.2863245,3.62608434 L0.422281938,66.2339157 C-0.572314244,67.9704217 0.250334802,69.3906627 2.25048458,69.3906627 L21.9514963,69.3906627 C23.609859,69.3906627 25.1422115,68.5042771 25.9694963,67.0659036 L56.6570029,13.7153614 C57.7025932,11.8970482 59.6395272,10.7762048 61.7361865,10.7762048 L61.7361865,10.7762048 C64.5421278,10.7762048 65.6926564,12.7674096 64.2930573,15.2005422 L34.9402482,66.2305422 C34.131928,67.6364458 35.1459104,69.3906627 36.7667651,69.3906627 L55.6666211,69.3906627 C57.3249838,69.3906627 58.8573363,68.5042771 59.6846211,67.0659036 L90.3721278,13.7153614 C91.4177181,11.8970482 93.354652,10.7762048 95.4513113,10.7762048 L95.4513113,10.7762048 C98.2572526,10.7762048 99.4077812,12.7674096 98.0081821,15.2005422 L68.655373,66.2305422 C67.8470529,67.6364458 68.8610352,69.3906627 70.4818899,69.3906627 L89.9704963,69.3906627 C91.6318091,69.3906627 93.1662687,68.5013253 93.9922893,67.0591566 L130.82522,2.75993976 C131.620897,1.37090361 130.962609,0.234036145 129.362405,0.234036145 L42.1363201,0.234036145 C39.7197885,0.234036145 37.4882687,1.52819277 36.2863245,3.62608434" id="Fill-1" fill="#259BF3" mask="url(#mask-8)"></path>
                        </g>
                        <path d="M132.578027,65.5490964 L132.445274,65.5490964 C130.003456,65.5490964 129.024875,63.8298795 130.270227,61.7286145 L147.604859,32.48 C148.779409,30.4989157 150.910627,29.2840361 153.212527,29.2840361 L153.212948,29.2840361 C155.499255,29.2840361 156.916555,31.7736747 155.750433,33.7416867 L139.102747,61.830241 C137.736442,64.1356024 135.256694,65.5490964 132.578027,65.5490964 M123.100284,26.9398795 L99.5544841,66.5801205 C98.7196134,67.9856024 99.73191,69.7659639 101.365829,69.7659639 L158.588403,69.7659639 C160.818659,69.7659639 162.88371,68.5903012 164.02286,66.6724699 L186.843785,28.253012 C187.678656,26.8475301 186.666359,25.0671687 185.03244,25.0671687 L126.390038,25.0671687 C125.040168,25.0671687 123.79018,25.7789759 123.100284,26.9398795" id="Fill-4" fill="#FFFFFF"></path>
                        <g id="Group-8" transform="translate(205.240822, 25.067169)">
                            <mask id="mask-10" fill="white">
                                <use xlink:href="#path-9"></use>
                            </mask>
                            <g id="Clip-7"></g>
                            <path d="M33.5919803,40.4819277 L33.459227,40.4819277 C31.0174091,40.4819277 30.0388276,38.7627108 31.28418,36.6614458 L48.6188115,7.41283133 C49.7933621,5.43174699 51.9245794,4.21686747 54.2264796,4.21686747 L54.226901,4.21686747 C56.5132079,4.21686747 57.9305075,6.70650602 56.7643856,8.67451807 L40.1166999,36.7630723 C38.7503944,39.0684337 36.270647,40.4819277 33.5919803,40.4819277 M24.1142373,1.87271084 L0.568437004,41.5129518 C-0.266433774,42.9184337 0.745862849,44.6987952 2.37978209,44.6987952 L59.6023562,44.6987952 C61.8326117,44.6987952 63.8976631,43.5231325 65.0368129,41.6053012 L87.857738,3.18584337 C88.6926088,1.78036145 87.6803122,0 86.046393,0 L27.4039906,0 C26.0541213,0 24.804133,0.711807229 24.1142373,1.87271084" id="Fill-6" fill="#FFFFFF" mask="url(#mask-10)"></path>
                        </g>
                        <path d="M233.429743,0.42189759 L211.749232,0.42189759 C210.145657,0.42189759 208.176693,1.5575 207.373009,2.94569277 L170.629844,66.4133434 C169.622184,68.1540663 170.442726,69.5785241 172.453411,69.5785241 L194.619842,69.5785241 C196.123115,69.5785241 197.513021,68.7768976 198.266554,67.4751506 C198.266554,67.4751506 222.094718,25.7817169 223.736645,23.8196084 C224.546229,22.852259 225.037627,21.7883434 227.139765,20.9668976 C228.574765,20.4064759 230.641502,20.4760542 232.100524,20.3638855 C234.448361,20.1829819 236.464104,19.6318373 236.734668,17.825753 C236.833706,17.1649699 236.092817,16.4531627 234.930066,16.2638253 C233.766894,16.0740663 232.181862,16.4067771 231.124893,16.0196687 C229.733301,15.5102711 229.50151,13.9491867 229.836975,13.2534036 C231.005204,10.8316566 235.25331,3.58707831 235.25331,3.58707831 C236.260971,1.84635542 235.440429,0.42189759 233.429743,0.42189759" id="Fill-9" fill="#FFFFFF"></path>
                    </g>
                    <g id="Page-1-Copy-5" transform="translate(280.256975, 0.000000)">
                        <g id="Group-3" transform="translate(0.000000, 0.187651)">
                            <mask id="mask-12" fill="white">
                                <use xlink:href="#path-11"></use>
                            </mask>
                            <g id="Clip-2"></g>
                            <path d="M36.2863245,3.62608434 L0.422281938,66.2339157 C-0.572314244,67.9704217 0.250334802,69.3906627 2.25048458,69.3906627 L21.9514963,69.3906627 C23.609859,69.3906627 25.1422115,68.5042771 25.9694963,67.0659036 L56.6570029,13.7153614 C57.7025932,11.8970482 59.6395272,10.7762048 61.7361865,10.7762048 L61.7361865,10.7762048 C64.5421278,10.7762048 65.6926564,12.7674096 64.2930573,15.2005422 L34.9402482,66.2305422 C34.131928,67.6364458 35.1459104,69.3906627 36.7667651,69.3906627 L55.6666211,69.3906627 C57.3249838,69.3906627 58.8573363,68.5042771 59.6846211,67.0659036 L90.3721278,13.7153614 C91.4177181,11.8970482 93.354652,10.7762048 95.4513113,10.7762048 L95.4513113,10.7762048 C98.2572526,10.7762048 99.4077812,12.7674096 98.0081821,15.2005422 L68.655373,66.2305422 C67.8470529,67.6364458 68.8610352,69.3906627 70.4818899,69.3906627 L89.9704963,69.3906627 C91.6318091,69.3906627 93.1662687,68.5013253 93.9922893,67.0591566 L130.82522,2.75993976 C131.620897,1.37090361 130.962609,0.234036145 129.362405,0.234036145 L42.1363201,0.234036145 C39.7197885,0.234036145 37.4882687,1.52819277 36.2863245,3.62608434" id="Fill-1" fill="#259BF3" mask="url(#mask-12)"></path>
                        </g>
                        <path d="M132.578027,65.5490964 L132.445274,65.5490964 C130.003456,65.5490964 129.024875,63.8298795 130.270227,61.7286145 L147.604859,32.48 C148.779409,30.4989157 150.910627,29.2840361 153.212527,29.2840361 L153.212948,29.2840361 C155.499255,29.2840361 156.916555,31.7736747 155.750433,33.7416867 L139.102747,61.830241 C137.736442,64.1356024 135.256694,65.5490964 132.578027,65.5490964 M123.100284,26.9398795 L99.5544841,66.5801205 C98.7196134,67.9856024 99.73191,69.7659639 101.365829,69.7659639 L158.588403,69.7659639 C160.818659,69.7659639 162.88371,68.5903012 164.02286,66.6724699 L186.843785,28.253012 C187.678656,26.8475301 186.666359,25.0671687 185.03244,25.0671687 L126.390038,25.0671687 C125.040168,25.0671687 123.79018,25.7789759 123.100284,26.9398795" id="Fill-4" fill="#FFFFFF"></path>
                        <g id="Group-8" transform="translate(205.240822, 25.067169)">
                            <mask id="mask-14" fill="white">
                                <use xlink:href="#path-13"></use>
                            </mask>
                            <g id="Clip-7"></g>
                            <path d="M33.5919803,40.4819277 L33.459227,40.4819277 C31.0174091,40.4819277 30.0388276,38.7627108 31.28418,36.6614458 L48.6188115,7.41283133 C49.7933621,5.43174699 51.9245794,4.21686747 54.2264796,4.21686747 L54.226901,4.21686747 C56.5132079,4.21686747 57.9305075,6.70650602 56.7643856,8.67451807 L40.1166999,36.7630723 C38.7503944,39.0684337 36.270647,40.4819277 33.5919803,40.4819277 M24.1142373,1.87271084 L0.568437004,41.5129518 C-0.266433774,42.9184337 0.745862849,44.6987952 2.37978209,44.6987952 L59.6023562,44.6987952 C61.8326117,44.6987952 63.8976631,43.5231325 65.0368129,41.6053012 L87.857738,3.18584337 C88.6926088,1.78036145 87.6803122,0 86.046393,0 L27.4039906,0 C26.0541213,0 24.804133,0.711807229 24.1142373,1.87271084" id="Fill-6" fill="#FFFFFF" mask="url(#mask-14)"></path>
                        </g>
                        <path d="M233.429743,0.42189759 L211.749232,0.42189759 C210.145657,0.42189759 208.176693,1.5575 207.373009,2.94569277 L170.629844,66.4133434 C169.622184,68.1540663 170.442726,69.5785241 172.453411,69.5785241 L194.619842,69.5785241 C196.123115,69.5785241 197.513021,68.7768976 198.266554,67.4751506 C198.266554,67.4751506 222.094718,25.7817169 223.736645,23.8196084 C224.546229,22.852259 225.037627,21.7883434 227.139765,20.9668976 C228.574765,20.4064759 230.641502,20.4760542 232.100524,20.3638855 C234.448361,20.1829819 236.464104,19.6318373 236.734668,17.825753 C236.833706,17.1649699 236.092817,16.4531627 234.930066,16.2638253 C233.766894,16.0740663 232.181862,16.4067771 231.124893,16.0196687 C229.733301,15.5102711 229.50151,13.9491867 229.836975,13.2534036 C231.005204,10.8316566 235.25331,3.58707831 235.25331,3.58707831 C236.260971,1.84635542 235.440429,0.42189759 233.429743,0.42189759" id="Fill-9" fill="#FFFFFF"></path>
                    </g>
                </g>
                <ellipse id="ico-asset-5" stroke="#E3E9F2" stroke-width="2" stroke-linecap="round" stroke-linejoin="round" stroke-dasharray="186.5853658536585,24.39024390243902" cx="295.037874" cy="328.957493" rx="221.674365" ry="221.674365"></ellipse>
                <ellipse id="ico-asset-5" stroke="#E3E9F2" stroke-width="2.43902439" stroke-linecap="round" stroke-linejoin="round" stroke-dasharray="68.29268292682927,7.317073170731707" cx="296.447218" cy="334.636097" rx="125.889145" ry="125.889145"></ellipse>
                <g id="icon" transform="translate(235.290375, 272.209993)">
                    <path d="M9.0554668,97.1073737 C4.72816894,89.8283988 2.23643868,81.3341515 2.23643868,72.2533665 C2.23643868,45.3422577 24.052265,23.5264313 50.9633739,23.5264313 C77.8744827,23.5264313 99.6903091,45.3422577 99.6903091,72.2533665 C99.6903091,99.1644753 77.8744827,120.980302 50.9633739,120.980302 C42.7771644,120.980302 35.0656706,118.950628 28.2930591,115.382875 L0.527461953,122.689278 L9.0554668,97.1073737 Z" id="Fill-75" fill="#FFFFFF"></path>
                    <path d="M50.9633739,23.5264313 C77.8744827,23.5264313 99.6903091,45.3422577 99.6903091,72.2533665 C99.6903091,79.3804324 98.1480103,86.1424946 95.3988786,92.2441745 L122.898635,99.4809525 L114.37063,73.8990478 C118.697928,66.6200728 121.189658,58.1258256 121.189658,49.0450406 C121.189658,22.1339318 99.3738319,0.318105389 72.4627231,0.318105389 C52.5731877,0.318105389 35.4813106,12.2387455 27.906957,29.3200734 C34.7724018,25.6257299 42.6210356,23.5264313 50.9633739,23.5264313" id="Fill-414" fill="#BAD3E1"></path>
                    <path d="M34.2850269,72.052931 C34.2850269,75.5489488 31.4515013,78.3824744 27.9554835,78.3824744 C24.4594657,78.3824744 21.6259401,75.5489488 21.6259401,72.052931 C21.6259401,68.5569131 24.4594657,65.7233875 27.9554835,65.7233875 C31.4515013,65.7233875 34.2850269,68.5569131 34.2850269,72.052931" id="Fill-453" fill="#4990E2"></path>
                    <path d="M57.4933528,72.052931 C57.4933528,75.5489488 54.6598272,78.3824744 51.1638094,78.3824744 C47.6677916,78.3824744 44.834266,75.5489488 44.834266,72.052931 C44.834266,68.5569131 47.6677916,65.7233875 51.1638094,65.7233875 C54.6598272,65.7233875 57.4933528,68.5569131 57.4933528,72.052931" id="Fill-454" fill="#4990E2"></path>
                    <path d="M80.7016788,72.052931 C80.7016788,75.5489488 77.8681531,78.3824744 74.3721353,78.3824744 C70.8761175,78.3824744 68.0425919,75.5489488 68.0425919,72.052931 C68.0425919,68.5569131 70.8761175,65.7233875 74.3721353,65.7233875 C77.8681531,65.7233875 80.7016788,68.5569131 80.7016788,72.052931" id="Fill-455" fill="#4990E2"></path>
                </g>
                <use id="ico-asset-3" stroke="#E3E9F2" mask="url(#mask-16)" stroke-width="4.87804878" fill="#FFFFFF" xlink:href="#path-15"></use>
                <use id="ico-asset-3" stroke="#E3E9F2" mask="url(#mask-18)" stroke-width="4.87804878" fill="#FFFFFF" xlink:href="#path-17"></use>
                <use id="ico-asset-3" stroke="#E3E9F2" mask="url(#mask-20)" stroke-width="4.87804878" fill="#FFFFFF" xlink:href="#path-19"></use>
                <use id="ico-asset-3" stroke="#E3E9F2" mask="url(#mask-22)" stroke-width="4.87804878" fill="#FFFFFF" xlink:href="#path-21"></use>
                <use id="ico-asset-3" stroke="#E3E9F2" mask="url(#mask-24)" stroke-width="4.87804878" fill="#FFFFFF" xlink:href="#path-23"></use>
                <g id="icon-asset-4" transform="translate(93.717577, 427.404947) scale(-1, 1) translate(-93.717577, -427.404947) translate(48.717577, 383.904947)">
                    <path d="M3.45379715,0.477220398 C1.63257652,0.477220398 0.156450273,1.95334665 0.156450273,3.77456728 L0.156450273,86.2521241 L16.1145719,70.2940025 L86.6235375,70.2940025 C88.4447582,70.2940025 89.9208844,68.8178762 89.9208844,66.9966556 L89.9208844,3.77456728 C89.9208844,1.95334665 88.4447582,0.477220398 86.6235375,0.477220398 L3.45379715,0.477220398" id="Fill-394" fill="#259BF3"></path>
                    <path d="M46.0360499,20.1969977 L69.9732324,20.1969977" id="Path" stroke="#FFFFFF" stroke-width="2"></path>
                    <path d="M20.1041023,33.6616628 L69.9732324,33.6616628" id="Path" stroke="#FFFFFF" stroke-width="2"></path>
                    <path d="M20.1041023,47.1263279 L69.9732324,47.1263279" id="Path" stroke="#FFFFFF" stroke-width="2"></path>
                </g>
                <g id="icon-asset-4" transform="translate(364.216458, 69.128260)">
                    <path d="M0.156450273,3.77456728 L0.156450273,86.2521241 L16.1145719,70.2940025 L86.6235375,70.2940025 C88.4447582,70.2940025 89.9208844,68.8178762 89.9208844,66.9966556 L89.9208844,3.77456728 C89.9208844,1.95334665 88.4447582,0.477220398 86.6235375,0.477220398 L3.45379715,0.477220398 C1.63257652,0.477220398 0.156450273,1.95334665 0.156450273,3.77456728 Z" id="Fill-394" fill="#259BF3"></path>
                    <path d="M20.1041023,20.1969977 L44.0412847,20.1969977" id="Path" stroke="#FFFFFF" stroke-width="2"></path>
                    <path d="M20.1041023,33.6616628 L69.9732324,33.6616628" id="Path" stroke="#FFFFFF" stroke-width="2"></path>
                    <path d="M20.1041023,47.1263279 L69.9732324,47.1263279" id="Path" stroke="#FFFFFF" stroke-width="2"></path>
                </g>
                <path d="M473.800236,369.518768 C473.469756,369.518768 473.139277,369.407588 472.863877,369.188289 C462.396649,360.781458 457.615914,352.928487 455.452496,347.816252 C454.867017,346.541254 454.408017,345.203015 454.102018,343.840297 C454.014298,343.473097 453.973498,343.246657 453.962278,343.167097 C453.722578,341.915559 453.603238,340.64056 453.603238,339.369642 C453.603238,328.233294 462.663888,319.172644 473.800236,319.172644 C484.936584,319.172644 493.997234,328.233294 493.997234,339.369642 C493.997234,340.64056 493.877894,341.915559 493.638194,343.163017 C493.626974,343.234417 493.586174,343.461877 493.498454,343.840297 C493.188375,345.207095 492.737535,346.545334 492.147976,347.816252 C489.980478,352.932567 485.199743,360.781458 474.736595,369.188289 C474.461195,369.407588 474.130716,369.518768 473.800236,369.518768 L473.800236,369.518768 Z M456.914155,342.704018 C456.922315,342.747878 456.949855,342.903938 457.010035,343.154857 C457.010035,343.158937 457.014115,343.167097 457.014115,343.170157 C457.277274,344.342136 457.667934,345.489635 458.173853,346.581034 C458.182013,346.597354 458.185073,346.609594 458.193233,346.624894 C460.157751,351.266908 464.457046,358.358961 473.800236,366.088512 C483.143426,358.354881 487.442721,351.266908 489.407239,346.624894 C489.415399,346.609594 489.418459,346.593274 489.426619,346.581034 C489.932538,345.489635 490.323198,344.342136 490.586357,343.170157 C490.586357,343.167097 490.590437,343.158937 490.590437,343.154857 C490.646537,342.915158 490.678157,342.760118 490.686317,342.708098 C490.690397,342.684638 490.693457,342.660158 490.697537,342.636698 C490.905617,341.560599 491.008637,340.46104 491.008637,339.369642 C491.008637,329.882632 483.291326,322.161241 473.800236,322.161241 C464.313226,322.161241 456.591835,329.878552 456.591835,339.365562 C456.591835,340.46104 456.694855,341.560599 456.902935,342.632618 C456.907015,342.657098 456.910075,342.680558 456.914155,342.704018 L456.914155,342.704018 Z M474.038916,351.370948 C467.253883,351.370948 461.731609,345.847654 461.731609,339.062622 C461.731609,332.277589 467.253883,326.755316 474.038916,326.755316 C476.505273,326.755316 478.88391,327.480535 480.919828,328.858553 C481.605267,329.320613 481.784787,330.248812 481.322728,330.934251 C480.860668,331.61969 479.932469,331.79921 479.24703,331.337151 C477.708872,330.296752 475.907554,329.746972 474.038916,329.746972 C468.903221,329.746972 464.724286,333.926928 464.724286,339.062622 C464.724286,344.198316 468.903221,348.378272 474.038916,348.378272 C479.17563,348.378272 483.354565,344.198316 483.354565,339.062622 C483.354565,337.795783 483.103646,336.568725 482.614046,335.413066 C482.290707,334.652147 482.641586,333.775968 483.402505,333.452628 C484.163425,333.130309 485.040624,333.480168 485.362943,334.242107 C486.012682,335.768026 486.343162,337.392884 486.343162,339.066702 C486.347242,345.851734 480.824968,351.370948 474.038916,351.370948 L474.038916,351.370948 Z M491.861356,371.595486 C491.861356,369.945128 490.774037,367.61443 485.586323,365.901852 C484.800924,365.642773 483.956365,366.069132 483.697285,366.849431 C483.438205,367.63483 483.864565,368.479389 484.645884,368.738469 C487.546761,369.698288 488.868679,370.889647 488.868679,371.591406 C488.868679,373.069384 483.550405,375.945781 473.800236,375.945781 C464.050067,375.945781 458.731793,373.069384 458.731793,371.591406 C458.731793,370.910047 460.002711,369.742148 462.791388,368.794569 C463.572707,368.527329 463.990907,367.67869 463.723667,366.897371 C463.456427,366.117072 462.607788,365.697853 461.827489,365.965092 C456.798895,367.67869 455.743196,369.973688 455.743196,371.595486 C455.743196,376.420081 464.827306,378.942538 473.804316,378.942538 C482.777246,378.942538 491.861356,376.420081 491.861356,371.595486 L491.861356,371.595486 Z" id="ico-asset-1" fill="#9DABC0"></path>
                <text id="" font-family="FontAwesome" font-size="43" font-weight="normal" line-spacing="24" fill="#E3E9F2">
                    <tspan x="498" y="297"></tspan>
                </text>
                <text id="-copy" font-family="FontAwesome" font-size="12" font-weight="normal" line-spacing="24" fill="#E3E9F2">
                    <tspan x="112.172074" y="335.518948"></tspan>
                </text>
                <g id="motorcyclist-helmet-side-view" transform="translate(166.319053, 143.441109) scale(-1, 1) translate(-166.319053, -143.441109) translate(145.000000, 121.000000)" fill="#E3E9F2">
                    <g id="Capa_1">
                        <path d="M42.5437285,26.2377347 L42.5437285,15.7327026 C42.5437285,11.615231 38.8383496,-1.15230822 22.5728013,0.0839080555 C10.8455989,0.973727764 5.86177659,9.14270002 3.99313858,13.633055 C3.98093105,13.663185 3.97807606,13.6942996 3.96675456,13.7243312 C3.91123,13.7920745 3.84999545,13.8543037 3.81140391,13.937112 C3.6269127,14.3382546 -0.697899898,23.8914346 0.0975584627,34.2128312 C0.107895483,34.3511732 0.147471506,34.4801611 0.206737092,34.5969395 C0.209592078,34.6223432 0.203980553,34.6440053 0.20772157,34.6702952 C0.620021027,37.873528 1.97663194,40.7189424 3.12039868,42.6387947 C3.99304013,44.1039399 6.14038391,44.6452953 7.71259555,43.984306 L39.699768,30.5218075 C41.2700107,29.8599321 42.5437285,27.9438214 42.5437285,26.2377347 Z M21.736684,16.8483989 C20.6221562,20.0252433 18.1923657,25.0673909 13.307385,28.4993557 C9.10494303,31.4539667 5.52951521,32.0885676 3.16745674,32.0630654 C2.78055682,32.0593238 2.40960544,32.1111158 2.06405361,32.2024905 C1.95969892,25.7358634 3.81799991,19.6956841 4.91096758,16.7231526 C5.23486089,16.9350472 5.61703532,17.0743739 6.04351126,17.1119872 C8.57115896,17.3352052 12.2482834,17.1026331 15.3662242,14.7035563 C17.3149003,13.2036532 18.7986073,12.6867169 19.9000415,12.635811 C21.6030903,12.557729 22.301676,15.2402838 21.736684,16.8483989 Z M34.3083717,26.8535289 C32.7738656,26.8535289 31.5292883,25.6087463 31.5292883,24.073987 C31.5292883,22.5392277 32.7738656,21.294445 34.3083717,21.294445 C35.8428779,21.294445 37.0883412,22.5392277 37.0883412,24.073987 C37.0883412,25.6087463 35.8427794,26.8535289 34.3083717,26.8535289 Z" id="Shape"></path>
                    </g>
                </g>
                <g id="motorcyclist-helmet-side-view-copy" transform="translate(370.751285, 496.371957) scale(-1, 1) translate(-370.751285, -496.371957) translate(358.408676, 482.907292)" fill="#E3E9F2">
                    <g id="Capa_1">
                        <path d="M24.6305797,15.7426408 L24.6305797,9.43962157 C24.6305797,6.96913861 22.4853603,-0.691384929 13.0684639,0.0503448333 C6.27903093,0.584236658 3.39366013,5.48562001 2.31181707,8.179833 C2.30474956,8.197911 2.30309667,8.21657979 2.29654212,8.23459871 C2.26439631,8.27524467 2.22894474,8.31258225 2.20660226,8.36226721 C2.09979156,8.60295276 -0.404047309,14.3348608 0.0564812152,20.5276987 C0.0624658062,20.6107039 0.0853782402,20.6880967 0.119689895,20.7581637 C0.121342782,20.7734059 0.118094004,20.7864032 0.120259856,20.8021771 C0.358959542,22.7241168 1.14436586,24.4313655 1.80654661,25.5832768 C2.31176008,26.4623639 3.55495911,26.7871772 4.4651869,26.3905836 L22.9840762,18.3130845 C23.8931641,17.9159592 24.6305797,16.7662929 24.6305797,15.7426408 Z M12.584396,10.1090393 C11.9391431,12.015146 10.5324222,15.0404345 7.70427552,17.0996134 C5.2712828,18.87238 3.20129828,19.2531405 1.83379074,19.2378392 C1.60979605,19.2355943 1.39503473,19.2666695 1.1949784,19.3214943 C1.13456253,15.441518 2.210421,11.8174105 2.84319175,10.0338916 C3.03070894,10.1610283 3.25196782,10.2446243 3.49887494,10.2671923 C4.96224993,10.4011231 7.09111143,10.2615798 8.89623505,8.82213376 C10.0244159,7.92219194 10.8834042,7.61203015 11.5210767,7.5814866 C12.5070523,7.5346374 12.9114966,9.14417031 12.584396,10.1090393 Z M19.8627415,16.1121173 C18.9743433,16.1121173 18.2537985,15.3652478 18.2537985,14.4443922 C18.2537985,13.5235366 18.9743433,12.776667 19.8627415,12.776667 C20.7511398,12.776667 21.4721975,13.5235366 21.4721975,14.4443922 C21.4721975,15.3652478 20.7510828,16.1121173 19.8627415,16.1121173 Z" id="Shape"></path>
                    </g>
                </g>
                <g id="motorcyclist-helmet-side-view-copy-2" transform="translate(153.707683, 549.680912) scale(-1, 1) translate(-153.707683, -549.680912) translate(141.365073, 536.216247)" fill="#E3E9F2">
                    <g id="Capa_1">
                        <path d="M24.6305797,15.7426408 L24.6305797,9.43962157 C24.6305797,6.96913861 22.4853603,-0.691384929 13.0684639,0.0503448333 C6.27903093,0.584236658 3.39366013,5.48562001 2.31181707,8.179833 C2.30474956,8.197911 2.30309667,8.21657979 2.29654212,8.23459871 C2.26439631,8.27524467 2.22894474,8.31258225 2.20660226,8.36226721 C2.09979156,8.60295276 -0.404047309,14.3348608 0.0564812152,20.5276987 C0.0624658062,20.6107039 0.0853782402,20.6880967 0.119689895,20.7581637 C0.121342782,20.7734059 0.118094004,20.7864032 0.120259856,20.8021771 C0.358959542,22.7241168 1.14436586,24.4313655 1.80654661,25.5832768 C2.31176008,26.4623639 3.55495911,26.7871772 4.4651869,26.3905836 L22.9840762,18.3130845 C23.8931641,17.9159592 24.6305797,16.7662929 24.6305797,15.7426408 Z M12.584396,10.1090393 C11.9391431,12.015146 10.5324222,15.0404345 7.70427552,17.0996134 C5.2712828,18.87238 3.20129828,19.2531405 1.83379074,19.2378392 C1.60979605,19.2355943 1.39503473,19.2666695 1.1949784,19.3214943 C1.13456253,15.441518 2.210421,11.8174105 2.84319175,10.0338916 C3.03070894,10.1610283 3.25196782,10.2446243 3.49887494,10.2671923 C4.96224993,10.4011231 7.09111143,10.2615798 8.89623505,8.82213376 C10.0244159,7.92219194 10.8834042,7.61203015 11.5210767,7.5814866 C12.5070523,7.5346374 12.9114966,9.14417031 12.584396,10.1090393 Z M19.8627415,16.1121173 C18.9743433,16.1121173 18.2537985,15.3652478 18.2537985,14.4443922 C18.2537985,13.5235366 18.9743433,12.776667 19.8627415,12.776667 C20.7511398,12.776667 21.4721975,13.5235366 21.4721975,14.4443922 C21.4721975,15.3652478 20.7510828,16.1121173 19.8627415,16.1121173 Z" id="Shape"></path>
                    </g>
                </g>
            </g>
        </g>
    </g>
</svg>